0
SECTION
2
HEADER
9
$INSUNITS
70
4
9
$ACADVER
1
AC1014
9
$HANDSEED
5
FFFF
0
ENDSEC
0
SECTION
2
TABLES
0
TABLE
2
VPORT
5
8
100
AcDbSymbolTable
0
ENDTAB
0
TABLE
2
LTYPE
5
5
100
AcDbSymbolTable
0
LTYPE
5
14
100
AcDbSymbolTableRecord
100
AcDbLinetypeTableRecord
2
BYBLOCK
70
0
0
LTYPE
5
15
100
AcDbSymbolTableRecord
100
AcDbLinetypeTableRecord
2
BYLAYER
70
0
0
ENDTAB
0
TABLE
2
LAYER
5
2
100
AcDbSymbolTable
70
2
0
LAYER
5
50
100
AcDbSymbolTableRecord
100
AcDbLayerTableRecord
2
0
70
0
6
CONTINUOUS
0
ENDTAB
0
TABLE
2
STYLE
5
3
100
AcDbSymbolTable
70
1
0
STYLE
5
11
100
AcDbSymbolTableRecord
100
AcDbTextStyleTableRecord
2
STANDARD
70
0
0
ENDTAB
0
TABLE
2
VIEW
5
6
100
AcDbSymbolTable
70
0
0
ENDTAB
0
TABLE
2
UCS
5
7
100
AcDbSymbolTable
70
0
0
ENDTAB
0
TABLE
2
APPID
5
9
100
AcDbSymbolTable
70
2
0
APPID
5
12
100
AcDbSymbolTableRecord
100
AcDbRegAppTableRecord
2
ACAD
70
0
0
ENDTAB
0
TABLE
2
DIMSTYLE
5
A
100
AcDbSymbolTable
70
1
0
ENDTAB
0
TABLE
2
BLOCK_RECORD
5
1
100
AcDbSymbolTable
70
1
0
BLOCK_RECORD
5
1F
100
AcDbSymbolTableRecord
100
AcDbBlockTableRecord
2
*MODEL_SPACE
0
BLOCK_RECORD
5
1B
100
AcDbSymbolTableRecord
100
AcDbBlockTableRecord
2
*PAPER_SPACE
0
ENDTAB
0
ENDSEC
0
SECTION
2
BLOCKS
0
BLOCK
5
20
100
AcDbEntity
100
AcDbBlockBegin
2
*MODEL_SPACE
0
ENDBLK
5
21
100
AcDbEntity
100
AcDbBlockEnd
0
BLOCK
5
1C
100
AcDbEntity
100
AcDbBlockBegin
2
*PAPER_SPACE
0
ENDBLK
5
1D
100
AcDbEntity
100
AcDbBlockEnd
0
ENDSEC
0
SECTION
2
ENTITIES
0
CIRCLE
5
100
100
AcDbEntity
8
0
100
AcDbCircle
10
107.59079956436558
20
-19.049999999999997
30
0
40
1.0999999999999943
210
0
220
0
230
1
0
CIRCLE
5
101
100
AcDbEntity
8
0
100
AcDbCircle
10
31.392133497921169
20
-19.050199999999993
30
0
40
1.1000000000000032
210
0
220
0
230
1
0
CIRCLE
5
102
100
AcDbEntity
8
0
100
AcDbCircle
10
182.32942689792125
20
-65.55010099999997
30
0
40
1.0999999999999943
210
0
220
0
230
1
0
CIRCLE
5
103
100
AcDbEntity
8
0
100
AcDbCircle
10
76.742133497921202
20
-65.350100999999981
30
0
40
1.0999999999999943
210
0
220
0
230
1
0
CIRCLE
5
104
100
AcDbEntity
8
0
100
AcDbCircle
10
138.07809296436562
20
-38.15000000000002
30
0
40
1.1000000000000119
210
0
220
0
230
1
0
CIRCLE
5
105
100
AcDbEntity
8
0
100
AcDbCircle
10
210.62942689792121
20
-16.75019999999995
30
0
40
1.0999999999999943
210
0
220
0
230
1
0
CIRCLE
5
106
100
AcDbEntity
8
0
100
AcDbCircle
10
29.842133497921175
20
-53.800100999999998
30
0
40
1.0999999999999985
210
0
220
0
230
1
0
LWPOLYLINE
5
107
100
AcDbEntity
8
0
100
AcDbPolyline
90
24
70
1
43
0.0
10
6.106226635438361e-15
20
-57.125200000000007
42
-0.41421356237309792
10
2.9999999999999982
20
-54.125200000000007
10
4.0592428108018899
20
-54.125200000000007
42
0.41421356237309553
10
7.0592428108018979
20
-51.125200000000007
10
7.0592428108018961
20
-44.125200000000007
42
0.41421356237309548
10
4.0592428108018908
20
-41.125200000000007
10
2.9999999999999991
20
-41.125200000000007
42
-0.41421356237309692
10
0
20
-38.125200000000007
10
6.106226635438361e-15
20
-2.9999999999999987
42
-0.4142135623730947
10
3.0000000000000071
20
0
10
200.51549281080196
20
1.1102230246251565e-15
42
-0.41421356237309453
10
203.51549281080196
20
-3.0000000000000004
10
203.51549281080199
20
-5.0251999999999502
42
0.41421356237309503
10
206.51549281080202
20
-8.0251999999999502
10
219.70924281080192
20
-8.0251999999999502
42
0.41421356237309503
10
222.70924281080192
20
-5.0251999999999502
10
222.70924281080192
20
-3.0000000000000009
42
-0.41421356237309437
10
225.70924281080192
20
0
10
239.87799999999999
20
1.7763568394002505e-14
42
-0.41421356237308982
10
242.87800000000001
20
-3.0000000000000071
10
242.87800000000001
20
-73.200000000000003
42
-0.41421356237308898
10
239.87799999999999
20
-76.200000000000017
10
3.000000000000008
20
-76.200000000000017
42
-0.41421356237309737
10
0
20
-73.200000000000017
0
ENDSEC
0
SECTION
2
OBJECTS
0
DICTIONARY
5
C
100
AcDbDictionary
3
ACAD_GROUP
350
D
3
ACAD_MLINESTYLE
350
17
0
DICTIONARY
5
D
100
AcDbDictionary
0
DICTIONARY
5
1A
330
C
100
AcDbDictionary
0
DICTIONARY
5
17
100
AcDbDictionary
0
ENDSEC
0
EOF
